# xmcd CD database file
#
# Track frame offsets:
#	150
#	16234
#	30516
#	42227
#	56726
#	77401
#	95950
#	108924
#	127420
#	142511
#
# Disc length: 2075 seconds
#
# Revision: 0
# Processed by: cddbd v1.5.1PL0 Copyright (c) Steve Scherf et al.
# Submitted via: CDex 1.51
#
DISCID=7c08190a
DTITLE=Timmy Thomas - Most Famous Hits
DYEAR=1900
DGENRE=Jazz
TTITLE0=Dizzy Dizzy World
TTITLE1=Opportunity
TTITLE2=Take Care Of Home
TTITLE3=In The Beginning
TTITLE4=Why Can't W Live Together
TTITLE5=Cold Cold People
TTITLE6=Funky Me
TTITLE7=The Coldest Days Of My Life
TTITLE8=The First Time Ever I Saw Your Face - Instrumental - 
TTITLE9=Rainbow Power
EXTD=
EXTT0=
EXTT1=
EXTT2=
EXTT3=
EXTT4=
EXTT5=
EXTT6=
EXTT7=
EXTT8=
EXTT9=
PLAYORDER=
